# xmcd
#
# Track frame offsets:
#	150
#	24782
#	50451
#	74856
#	94097
#	114323
#	132881
#	151760
#	171571
#	190091
#	209696
#	233519
#
# Disc length: 3523 seconds
#
# Revision: 0
# Processed by: cddbd v1.5.1PL0 Copyright (c) Steve Scherf et al.
# Submitted via: audiograbber 1.83.01
#
DISCID=a00dc10c
DTITLE=Holt,Scott - Dark of the Night
DYEAR=1999
DGENRE=Blues
TTITLE0=Breakin' Up Somebody's Home
TTITLE1=I Believe To My Soul
TTITLE2=Train In Vain (Stand By Me)
TTITLE3=Dimples
TTITLE4=Five Women
TTITLE5=Dark of the Night
TTITLE6=Crosstown Traffic
TTITLE7=Right Place, Wrong Time
TTITLE8=All You Give Me Is The Blues
TTITLE9=It Hurts to Love Somebody
TTITLE10=You Gotta Serve Somebody
TTITLE11=Voodoo Chile
EXTD=
EXTT0=
EXTT1=
EXTT2=
EXTT3=
EXTT4=
EXTT5=
EXTT6=
EXTT7=
EXTT8=
EXTT9=
EXTT10=
EXTT11=
PLAYORDER=
